<?xml version="1.0" standalone="no"?>
<!DOCTYPE svg PUBLIC "-//W3C//DTD SVG 20010904//EN"
 "http://www.w3.org/TR/2001/REC-SVG-20010904/DTD/svg10.dtd">
<svg version="1.0" xmlns="http://www.w3.org/2000/svg"
 width="980.000000pt" height="980.000000pt" viewBox="0 0 980.000000 980.000000"
 preserveAspectRatio="xMidYMid meet">

<g transform="translate(0.000000,980.000000) scale(0.100000,-0.100000)"
fill="#000000" stroke="none">
<path d="M4560 9789 c-1035 -75 -1998 -463 -2800 -1128 -150 -123 -501 -475
-622 -621 -881 -1068 -1270 -2403 -1098 -3765 119 -934 501 -1801 1124 -2545
98 -117 370 -393 496 -504 1328 -1166 3158 -1531 4825 -962 895 305 1700 879
2281 1627 540 695 885 1521 993 2384 178 1412 -247 2797 -1185 3865 -112 128
-386 398 -509 501 -763 642 -1665 1026 -2665 1134 -174 19 -664 27 -840 14z
m671 -1919 c929 -93 1440 -467 1591 -1164 72 -334 -34 -779 -250 -1046 -184
-228 -469 -387 -832 -465 -88 -19 -100 -24 -75 -29 417 -96 625 -176 851 -328
465 -310 673 -854 553 -1448 -60 -297 -182 -526 -381 -716 -298 -285 -735
-433 -1368 -464 -113 -5 -719 -10 -1347 -10 l-1143 0 0 2840 0 2840 1149 0
c718 0 1188 -4 1252 -10z"/>
<path d="M3230 6425 l0 -1085 803 0 c885 1 1149 8 1336 41 599 102 929 410
1007 940 30 207 6 416 -65 574 -158 348 -542 550 -1151 605 -69 6 -478 10
-1022 10 l-908 0 0 -1085z"/>
<path d="M3230 3760 l0 -1211 1093 4 c1178 4 1152 2 1390 58 379 89 646 278
793 562 98 189 138 370 138 612 -1 147 -3 170 -32 280 -141 535 -576 821
-1357 895 -67 6 -488 10 -1067 10 l-958 0 0 -1210z"/>
</g>
</svg>
